<mxfile host="app.diagrams.net" modified="2023-05-24T17:25:52.882Z" agent="Mozilla/5.0 (Windows NT 10.0; Win64; x64) AppleWebKit/537.36 (KHTML, like Gecko) Chrome/113.0.0.0 Safari/537.36" etag="0hqcxZUq3Nb4UIz0WmN3" version="21.3.2" type="github">
  <diagram id="C5RBs43oDa-KdzZeNtuy" name="Page-1">
    <mxGraphModel dx="2304" dy="732" grid="1" gridSize="10" guides="1" tooltips="1" connect="1" arrows="1" fold="1" page="1" pageScale="1" pageWidth="827" pageHeight="1169" math="0" shadow="0">
      <root>
        <mxCell id="WIyWlLk6GJQsqaUBKTNV-0" />
        <mxCell id="WIyWlLk6GJQsqaUBKTNV-1" parent="WIyWlLk6GJQsqaUBKTNV-0" />
        <mxCell id="8pWsUFwI2HWLG7aPr-Og-55" value="地址（优化)" style="rounded=1;whiteSpace=wrap;html=1;fontSize=12;glass=0;strokeWidth=1;shadow=0;fillColor=#21FF3F;" vertex="1" parent="WIyWlLk6GJQsqaUBKTNV-1">
          <mxGeometry x="360" y="200" width="120" height="40" as="geometry" />
        </mxCell>
        <mxCell id="WIyWlLk6GJQsqaUBKTNV-3" value="账户设置" style="rounded=1;whiteSpace=wrap;html=1;fontSize=12;glass=0;strokeWidth=1;shadow=0;" parent="WIyWlLk6GJQsqaUBKTNV-1" vertex="1">
          <mxGeometry x="160" y="80" width="120" height="40" as="geometry" />
        </mxCell>
        <mxCell id="8pWsUFwI2HWLG7aPr-Og-4" value="" style="edgeStyle=orthogonalEdgeStyle;rounded=0;orthogonalLoop=1;jettySize=auto;html=1;" edge="1" parent="WIyWlLk6GJQsqaUBKTNV-1" source="WIyWlLk6GJQsqaUBKTNV-12" target="8pWsUFwI2HWLG7aPr-Og-3">
          <mxGeometry relative="1" as="geometry" />
        </mxCell>
        <mxCell id="WIyWlLk6GJQsqaUBKTNV-12" value="修改密码" style="rounded=1;whiteSpace=wrap;html=1;fontSize=12;glass=0;strokeWidth=1;shadow=0;" parent="WIyWlLk6GJQsqaUBKTNV-1" vertex="1">
          <mxGeometry x="60" y="350" width="120" height="40" as="geometry" />
        </mxCell>
        <mxCell id="8pWsUFwI2HWLG7aPr-Og-0" value="&lt;span style=&quot;font-size: 18px;&quot;&gt;会员-账户设置&lt;/span&gt;" style="rounded=1;whiteSpace=wrap;html=1;fontSize=12;glass=0;strokeWidth=1;shadow=0;fillColor=#21FF3F;" vertex="1" parent="WIyWlLk6GJQsqaUBKTNV-1">
          <mxGeometry x="110" y="20" width="480" height="40" as="geometry" />
        </mxCell>
        <mxCell id="8pWsUFwI2HWLG7aPr-Og-1" value="修改信息" style="text;html=1;strokeColor=none;fillColor=none;align=center;verticalAlign=middle;whiteSpace=wrap;rounded=0;" vertex="1" parent="WIyWlLk6GJQsqaUBKTNV-1">
          <mxGeometry x="230" y="130" width="60" height="30" as="geometry" />
        </mxCell>
        <mxCell id="8pWsUFwI2HWLG7aPr-Og-2" value="" style="strokeWidth=2;html=1;shape=mxgraph.flowchart.annotation_2;align=left;labelPosition=right;pointerEvents=1;rotation=90;" vertex="1" parent="WIyWlLk6GJQsqaUBKTNV-1">
          <mxGeometry x="180" y="-40" width="80" height="397.5" as="geometry" />
        </mxCell>
        <mxCell id="8pWsUFwI2HWLG7aPr-Og-3" value="跳回登录页" style="rounded=1;whiteSpace=wrap;html=1;fontSize=12;glass=0;strokeWidth=1;shadow=0;" vertex="1" parent="WIyWlLk6GJQsqaUBKTNV-1">
          <mxGeometry x="60" y="440" width="120" height="40" as="geometry" />
        </mxCell>
        <mxCell id="8pWsUFwI2HWLG7aPr-Og-5" value="修改成功" style="text;html=1;strokeColor=none;fillColor=none;align=center;verticalAlign=middle;whiteSpace=wrap;rounded=0;" vertex="1" parent="WIyWlLk6GJQsqaUBKTNV-1">
          <mxGeometry x="130" y="400" width="60" height="30" as="geometry" />
        </mxCell>
        <mxCell id="8pWsUFwI2HWLG7aPr-Og-7" value="姓" style="rounded=1;whiteSpace=wrap;html=1;fontSize=12;glass=0;strokeWidth=1;shadow=0;" vertex="1" parent="WIyWlLk6GJQsqaUBKTNV-1">
          <mxGeometry x="-340" y="350" width="120" height="40" as="geometry" />
        </mxCell>
        <mxCell id="8pWsUFwI2HWLG7aPr-Og-8" value="名字" style="rounded=1;whiteSpace=wrap;html=1;fontSize=12;glass=0;strokeWidth=1;shadow=0;" vertex="1" parent="WIyWlLk6GJQsqaUBKTNV-1">
          <mxGeometry x="-190" y="350" width="120" height="40" as="geometry" />
        </mxCell>
        <mxCell id="8pWsUFwI2HWLG7aPr-Og-10" value="都要输入原密码才能修改" style="text;html=1;strokeColor=none;fillColor=none;align=center;verticalAlign=middle;whiteSpace=wrap;rounded=0;" vertex="1" parent="WIyWlLk6GJQsqaUBKTNV-1">
          <mxGeometry x="-160" y="410" width="150" height="30" as="geometry" />
        </mxCell>
        <mxCell id="8pWsUFwI2HWLG7aPr-Og-13" value="" style="edgeStyle=orthogonalEdgeStyle;rounded=0;orthogonalLoop=1;jettySize=auto;html=1;" edge="1" parent="WIyWlLk6GJQsqaUBKTNV-1" source="8pWsUFwI2HWLG7aPr-Og-11">
          <mxGeometry relative="1" as="geometry">
            <mxPoint x="347" y="477.5" as="targetPoint" />
          </mxGeometry>
        </mxCell>
        <mxCell id="8pWsUFwI2HWLG7aPr-Og-18" value="No" style="rounded=0;html=1;jettySize=auto;orthogonalLoop=1;fontSize=11;endArrow=block;endFill=0;endSize=8;strokeWidth=1;shadow=0;labelBackgroundColor=none;edgeStyle=orthogonalEdgeStyle;" edge="1" parent="WIyWlLk6GJQsqaUBKTNV-1" source="8pWsUFwI2HWLG7aPr-Og-20" target="8pWsUFwI2HWLG7aPr-Og-22">
          <mxGeometry x="0.3333" y="20" relative="1" as="geometry">
            <mxPoint as="offset" />
          </mxGeometry>
        </mxCell>
        <mxCell id="8pWsUFwI2HWLG7aPr-Og-19" value="Yes" style="edgeStyle=orthogonalEdgeStyle;rounded=0;html=1;jettySize=auto;orthogonalLoop=1;fontSize=11;endArrow=block;endFill=0;endSize=8;strokeWidth=1;shadow=0;labelBackgroundColor=none;" edge="1" parent="WIyWlLk6GJQsqaUBKTNV-1" source="8pWsUFwI2HWLG7aPr-Og-20" target="8pWsUFwI2HWLG7aPr-Og-23">
          <mxGeometry y="10" relative="1" as="geometry">
            <mxPoint as="offset" />
          </mxGeometry>
        </mxCell>
        <mxCell id="8pWsUFwI2HWLG7aPr-Og-20" value="&lt;div&gt;验证是否实名&lt;/div&gt;" style="rhombus;whiteSpace=wrap;html=1;shadow=0;fontFamily=Helvetica;fontSize=12;align=center;strokeWidth=1;spacing=6;spacingTop=-4;fillColor=#21FF3F;" vertex="1" parent="WIyWlLk6GJQsqaUBKTNV-1">
          <mxGeometry x="297" y="477.5" width="100" height="80" as="geometry" />
        </mxCell>
        <mxCell id="8pWsUFwI2HWLG7aPr-Og-21" value="" style="edgeStyle=orthogonalEdgeStyle;rounded=0;orthogonalLoop=1;jettySize=auto;html=1;" edge="1" parent="WIyWlLk6GJQsqaUBKTNV-1" source="8pWsUFwI2HWLG7aPr-Og-22" target="8pWsUFwI2HWLG7aPr-Og-26">
          <mxGeometry relative="1" as="geometry" />
        </mxCell>
        <mxCell id="8pWsUFwI2HWLG7aPr-Og-22" value="&lt;div&gt;选择经营类目&lt;/div&gt;" style="rounded=1;whiteSpace=wrap;html=1;fontSize=12;glass=0;strokeWidth=1;shadow=0;fillColor=#21FF3F;" vertex="1" parent="WIyWlLk6GJQsqaUBKTNV-1">
          <mxGeometry x="287" y="617.5" width="120" height="40" as="geometry" />
        </mxCell>
        <mxCell id="8pWsUFwI2HWLG7aPr-Og-23" value="&lt;div&gt;用户注册&lt;/div&gt;" style="rounded=1;whiteSpace=wrap;html=1;fontSize=12;glass=0;strokeWidth=1;shadow=0;" vertex="1" parent="WIyWlLk6GJQsqaUBKTNV-1">
          <mxGeometry x="447" y="497.5" width="120" height="40" as="geometry" />
        </mxCell>
        <mxCell id="8pWsUFwI2HWLG7aPr-Og-24" value="&#xa;&#xa;&lt;div&gt;&lt;span style=&quot;mso-spacerun:&#39;yes&#39;;font-size:8.63768pt;font-family:Arial;color:rgb(0,0,0);&quot;&gt;*&lt;/span&gt;&lt;span style=&quot;mso-spacerun:&#39;yes&#39;;font-size:8.63768pt;font-family:微软雅黑;color:rgb(0,0,0);&quot;&gt;根据类目展示保证金&#xa;&lt;/span&gt;&lt;/div&gt;&#xa;&#xa;&#xa;" style="text;html=1;strokeColor=none;fillColor=none;align=center;verticalAlign=middle;whiteSpace=wrap;rounded=0;" vertex="1" parent="WIyWlLk6GJQsqaUBKTNV-1">
          <mxGeometry x="417" y="622.5" width="180" height="30" as="geometry" />
        </mxCell>
        <mxCell id="8pWsUFwI2HWLG7aPr-Og-25" value="" style="edgeStyle=orthogonalEdgeStyle;rounded=0;orthogonalLoop=1;jettySize=auto;html=1;" edge="1" parent="WIyWlLk6GJQsqaUBKTNV-1" source="8pWsUFwI2HWLG7aPr-Og-26">
          <mxGeometry relative="1" as="geometry">
            <mxPoint x="347" y="890" as="targetPoint" />
          </mxGeometry>
        </mxCell>
        <mxCell id="8pWsUFwI2HWLG7aPr-Og-26" value="&lt;div&gt;选择营业执照&lt;/div&gt;" style="whiteSpace=wrap;html=1;rounded=1;glass=0;strokeWidth=1;shadow=0;" vertex="1" parent="WIyWlLk6GJQsqaUBKTNV-1">
          <mxGeometry x="287" y="707.5" width="120" height="60" as="geometry" />
        </mxCell>
        <mxCell id="8pWsUFwI2HWLG7aPr-Og-27" value="" style="strokeWidth=2;html=1;shape=mxgraph.flowchart.annotation_2;align=left;labelPosition=right;pointerEvents=1;" vertex="1" parent="WIyWlLk6GJQsqaUBKTNV-1">
          <mxGeometry x="407" y="687.5" width="50" height="100" as="geometry" />
        </mxCell>
        <mxCell id="8pWsUFwI2HWLG7aPr-Og-28" value="&lt;div&gt;普通营业制造&amp;nbsp;&lt;/div&gt;" style="rounded=1;whiteSpace=wrap;html=1;absoluteArcSize=1;arcSize=14;strokeWidth=2;" vertex="1" parent="WIyWlLk6GJQsqaUBKTNV-1">
          <mxGeometry x="457" y="667.5" width="170" height="50" as="geometry" />
        </mxCell>
        <mxCell id="8pWsUFwI2HWLG7aPr-Og-29" value="" style="edgeStyle=orthogonalEdgeStyle;rounded=0;orthogonalLoop=1;jettySize=auto;html=1;" edge="1" parent="WIyWlLk6GJQsqaUBKTNV-1" source="8pWsUFwI2HWLG7aPr-Og-30">
          <mxGeometry relative="1" as="geometry">
            <mxPoint x="677" y="792.5" as="targetPoint" />
          </mxGeometry>
        </mxCell>
        <mxCell id="8pWsUFwI2HWLG7aPr-Og-30" value="&lt;div&gt;三证合一&amp;nbsp;&lt;/div&gt;" style="rounded=1;whiteSpace=wrap;html=1;absoluteArcSize=1;arcSize=14;strokeWidth=2;" vertex="1" parent="WIyWlLk6GJQsqaUBKTNV-1">
          <mxGeometry x="457" y="767.5" width="170" height="50" as="geometry" />
        </mxCell>
        <mxCell id="8pWsUFwI2HWLG7aPr-Og-31" value="" style="strokeWidth=2;html=1;shape=mxgraph.flowchart.annotation_2;align=left;labelPosition=right;pointerEvents=1;" vertex="1" parent="WIyWlLk6GJQsqaUBKTNV-1">
          <mxGeometry x="627" y="667.5" width="40" height="50" as="geometry" />
        </mxCell>
        <mxCell id="8pWsUFwI2HWLG7aPr-Og-32" value="&lt;div&gt;企业注册号&lt;/div&gt;" style="rounded=1;whiteSpace=wrap;html=1;absoluteArcSize=1;arcSize=14;strokeWidth=2;" vertex="1" parent="WIyWlLk6GJQsqaUBKTNV-1">
          <mxGeometry x="667" y="647.5" width="160" height="35" as="geometry" />
        </mxCell>
        <mxCell id="8pWsUFwI2HWLG7aPr-Og-33" value="&lt;div&gt;组织机构代码&lt;/div&gt;" style="rounded=1;whiteSpace=wrap;html=1;absoluteArcSize=1;arcSize=14;strokeWidth=2;" vertex="1" parent="WIyWlLk6GJQsqaUBKTNV-1">
          <mxGeometry x="667" y="697.5" width="160" height="35" as="geometry" />
        </mxCell>
        <mxCell id="8pWsUFwI2HWLG7aPr-Og-34" value="&lt;div&gt;社会统一信用代码&lt;/div&gt;" style="rounded=1;whiteSpace=wrap;html=1;absoluteArcSize=1;arcSize=14;strokeWidth=2;" vertex="1" parent="WIyWlLk6GJQsqaUBKTNV-1">
          <mxGeometry x="677" y="775" width="140" height="35" as="geometry" />
        </mxCell>
        <mxCell id="8pWsUFwI2HWLG7aPr-Og-35" value="" style="edgeStyle=orthogonalEdgeStyle;rounded=0;orthogonalLoop=1;jettySize=auto;html=1;" edge="1" parent="WIyWlLk6GJQsqaUBKTNV-1" target="8pWsUFwI2HWLG7aPr-Og-47">
          <mxGeometry relative="1" as="geometry">
            <mxPoint x="357" y="925" as="sourcePoint" />
          </mxGeometry>
        </mxCell>
        <mxCell id="8pWsUFwI2HWLG7aPr-Og-42" value="&lt;div&gt;法人姓名&lt;span style=&quot;font-size: 8.63768pt; font-family: Arial;&quot;&gt;+&lt;/span&gt;&lt;span style=&quot;font-size: 8.63768pt; font-family: 微软雅黑;&quot;&gt;证件号&lt;/span&gt;&lt;/div&gt;" style="rounded=1;whiteSpace=wrap;html=1;absoluteArcSize=1;arcSize=14;strokeWidth=2;" vertex="1" parent="WIyWlLk6GJQsqaUBKTNV-1">
          <mxGeometry x="280" y="890" width="160" height="35" as="geometry" />
        </mxCell>
        <mxCell id="8pWsUFwI2HWLG7aPr-Og-46" value="" style="edgeStyle=orthogonalEdgeStyle;rounded=0;orthogonalLoop=1;jettySize=auto;html=1;" edge="1" parent="WIyWlLk6GJQsqaUBKTNV-1" source="8pWsUFwI2HWLG7aPr-Og-47" target="8pWsUFwI2HWLG7aPr-Og-49">
          <mxGeometry relative="1" as="geometry" />
        </mxCell>
        <mxCell id="8pWsUFwI2HWLG7aPr-Og-47" value="&lt;div&gt;&lt;span style=&quot;font-family: 微软雅黑; font-size: 8.63768pt; background-color: initial;&quot;&gt;上传营业执照&amp;nbsp;&lt;/span&gt;&lt;br&gt;&lt;/div&gt;" style="whiteSpace=wrap;html=1;rounded=1;glass=0;strokeWidth=1;shadow=0;" vertex="1" parent="WIyWlLk6GJQsqaUBKTNV-1">
          <mxGeometry x="297" y="972.5" width="120" height="60" as="geometry" />
        </mxCell>
        <mxCell id="8pWsUFwI2HWLG7aPr-Og-48" value="" style="edgeStyle=orthogonalEdgeStyle;rounded=0;orthogonalLoop=1;jettySize=auto;html=1;" edge="1" parent="WIyWlLk6GJQsqaUBKTNV-1" source="8pWsUFwI2HWLG7aPr-Og-49" target="8pWsUFwI2HWLG7aPr-Og-50">
          <mxGeometry relative="1" as="geometry" />
        </mxCell>
        <mxCell id="8pWsUFwI2HWLG7aPr-Og-49" value="&lt;div&gt;&lt;div&gt;发起申请&amp;nbsp;&lt;/div&gt;&lt;/div&gt;" style="whiteSpace=wrap;html=1;rounded=1;glass=0;strokeWidth=1;shadow=0;" vertex="1" parent="WIyWlLk6GJQsqaUBKTNV-1">
          <mxGeometry x="297" y="1072.5" width="120" height="60" as="geometry" />
        </mxCell>
        <mxCell id="8pWsUFwI2HWLG7aPr-Og-50" value="&lt;div&gt;提交审核成功&lt;/div&gt;" style="whiteSpace=wrap;html=1;rounded=1;glass=0;strokeWidth=1;shadow=0;" vertex="1" parent="WIyWlLk6GJQsqaUBKTNV-1">
          <mxGeometry x="297" y="1172.5" width="120" height="60" as="geometry" />
        </mxCell>
        <mxCell id="8pWsUFwI2HWLG7aPr-Og-51" value="&#xa;&#xa;&lt;div&gt;&lt;span style=&quot;mso-spacerun:&#39;yes&#39;;font-size:8.63768pt;font-family:Arial;color:rgb(0,0,0);&quot;&gt;*&lt;/span&gt;&lt;span style=&quot;mso-spacerun:&#39;yes&#39;;font-size:8.63768pt;font-family:微软雅黑;color:rgb(0,0,0);&quot;&gt;按钮状态改变&lt;/span&gt;&lt;span style=&quot;mso-spacerun:&#39;yes&#39;;font-size:8.63768pt;font-family:Arial;color:rgb(0,0,0);&quot;&gt; - &lt;/span&gt;&lt;span style=&quot;mso-spacerun:&#39;yes&#39;;font-size:8.63768pt;font-family:微软雅黑;color:rgb(0,0,0);&quot;&gt;审核中&lt;/span&gt;&lt;/div&gt;&#xa;&#xa;&#xa;" style="text;html=1;strokeColor=none;fillColor=none;align=center;verticalAlign=middle;whiteSpace=wrap;rounded=0;" vertex="1" parent="WIyWlLk6GJQsqaUBKTNV-1">
          <mxGeometry x="427" y="1187.5" width="140" height="30" as="geometry" />
        </mxCell>
        <mxCell id="8pWsUFwI2HWLG7aPr-Og-53" value="个人信息" style="rounded=1;whiteSpace=wrap;html=1;fontSize=12;glass=0;strokeWidth=1;shadow=0;" vertex="1" parent="WIyWlLk6GJQsqaUBKTNV-1">
          <mxGeometry x="-40" y="190" width="120" height="40" as="geometry" />
        </mxCell>
        <mxCell id="8pWsUFwI2HWLG7aPr-Og-54" value="收藏" style="rounded=1;whiteSpace=wrap;html=1;fontSize=12;glass=0;strokeWidth=1;shadow=0;" vertex="1" parent="WIyWlLk6GJQsqaUBKTNV-1">
          <mxGeometry x="160" y="190" width="120" height="40" as="geometry" />
        </mxCell>
        <mxCell id="8pWsUFwI2HWLG7aPr-Og-11" value="申请成为商家（无法提交)" style="rounded=1;whiteSpace=wrap;html=1;fillColor=#21FF3F;" vertex="1" parent="WIyWlLk6GJQsqaUBKTNV-1">
          <mxGeometry x="272" y="357.5" width="150" height="40" as="geometry" />
        </mxCell>
      </root>
    </mxGraphModel>
  </diagram>
</mxfile>
